<svg xmlns="http://www.w3.org/2000/svg" viewBox="0 0 200 200" width="400" height="400"><defs><mask id="cut"><rect width="200" height="200" fill="white"></rect><line x1="152.00" y1="40.00" x2="152.00" y2="160.00" stroke="black" stroke-width="8.5" stroke-linecap="round"></line><line x1="178.40" y1="87.46" x2="101.27" y2="179.39" stroke="black" stroke-width="8.5" stroke-linecap="round"></line><line x1="168.12" y1="140.79" x2="49.94" y2="161.63" stroke="black" stroke-width="8.5" stroke-linecap="round"></line><line x1="125.96" y1="175.03" x2="22.04" y2="115.03" stroke="black" stroke-width="8.5" stroke-linecap="round"></line><line x1="71.66" y1="174.17" x2="30.61" y2="61.40" stroke="black" stroke-width="8.5" stroke-linecap="round"></line><line x1="30.61" y1="138.60" x2="71.66" y2="25.83" stroke="black" stroke-width="8.5" stroke-linecap="round"></line><line x1="22.04" y1="84.97" x2="125.96" y2="24.97" stroke="black" stroke-width="8.5" stroke-linecap="round"></line><line x1="49.94" y1="38.37" x2="168.12" y2="59.21" stroke="black" stroke-width="8.5" stroke-linecap="round"></line><line x1="101.27" y1="20.61" x2="178.40" y2="112.54" stroke="black" stroke-width="8.5" stroke-linecap="round"></line></mask></defs><g fill="none" stroke="#000000" stroke-width="3.5" stroke-linecap="round" mask="url(#cut)"><line x1="169.39" y1="61.40" x2="128.34" y2="174.17"></line><line x1="177.96" y1="115.03" x2="74.04" y2="175.03"></line><line x1="150.06" y1="161.63" x2="31.88" y2="140.79"></line><line x1="98.73" y1="179.39" x2="21.60" y2="87.46"></line><line x1="48.00" y1="160.00" x2="48.00" y2="40.00"></line><line x1="21.60" y1="112.54" x2="98.73" y2="20.61"></line><line x1="31.88" y1="59.21" x2="150.06" y2="38.37"></line><line x1="74.04" y1="24.97" x2="177.96" y2="84.97"></line><line x1="128.34" y1="25.83" x2="169.39" y2="138.60"></line></g><g fill="none" stroke="#000000" stroke-width="3.5" stroke-linecap="round"><line x1="152.00" y1="40.00" x2="152.00" y2="160.00"></line><line x1="178.40" y1="87.46" x2="101.27" y2="179.39"></line><line x1="168.12" y1="140.79" x2="49.94" y2="161.63"></line><line x1="125.96" y1="175.03" x2="22.04" y2="115.03"></line><line x1="71.66" y1="174.17" x2="30.61" y2="61.40"></line><line x1="30.61" y1="138.60" x2="71.66" y2="25.83"></line><line x1="22.04" y1="84.97" x2="125.96" y2="24.97"></line><line x1="49.94" y1="38.37" x2="168.12" y2="59.21"></line><line x1="101.27" y1="20.61" x2="178.40" y2="112.54"></line></g></svg>